<?xml version="1.0" encoding="UTF-8" standalone="no"?>

<svg
    fill="#000000"
    version="1.1"
    id="Layer_1"
    width="65.056038"
    height="104.2103"
    viewBox="796 796 16.264009 26.052574"
    enable-background="new 796 796 200 200"
    xml:space="preserve"
    xmlns:sodipodi="http://sodipodi.sourceforge.net/DTD/sodipodi-0.dtd"
    xmlns="http://www.w3.org/2000/svg">
<defs
   id="defs1" /><sodipodi:namedview
   id="namedview1"
   pagecolor="#ffffff"
   bordercolor="#000000"
   borderopacity="0.25"/>
<path
   d="m 804.132,796 c -4.48403,0 -8.132,3.64366 -8.132,8.1223 0,4.47873 3.64797,8.12232 8.132,8.12232 4.48411,0 8.13201,-3.64359 8.13201,-8.12232 0,-4.47864 -3.6479,-8.1223 -8.13201,-8.1223 z m 0.052,2.55244 c 1.67017,0 3.02424,1.59684 3.02424,3.56739 0,1.97023 -1.35407,3.56764 -3.02424,3.56764 -1.67017,0 -3.02408,-1.59741 -3.02408,-3.56764 0,-1.97055 1.35391,-3.56739 3.02408,-3.56739 z m -0.052,12.70613 c -2.00797,0 -3.82517,-0.83165 -5.12452,-2.16826 -0.18426,-0.18965 -0.24264,-0.46905 -0.14962,-0.71638 0.44483,-1.18228 1.27819,-2.1737 2.34342,-2.82339 0.22998,-0.14036 0.52444,-0.1131 0.72457,0.0673 0.62665,0.56515 1.40815,0.90271 2.25804,0.90271 0.83345,0 1.6012,-0.32496 2.22151,-0.87063 0.20234,-0.17796 0.49835,-0.20135 0.72636,-0.0578 1.03254,0.65011 1.83932,1.62488 2.2743,2.78214 0.093,0.24749 0.0346,0.52649 -0.1498,0.71615 -1.29917,1.33652 -3.11636,2.16816 -5.12426,2.16816 z"
   id="path1"
   style="stroke-width:0.081272" />
<rect
   style="fill:#000000;fill-opacity:1;stroke-width:0.21817;stroke-dasharray:none"
   id="rect30"
   width="2"
   height="10"
   x="803.1"
   y="812" /></svg>
